<?xml version="1.0" standalone="no"?>
<!DOCTYPE svg PUBLIC "-//W3C//DTD SVG 20010904//EN"
 "http://www.w3.org/TR/2001/REC-SVG-20010904/DTD/svg10.dtd">
<svg version="1.0" xmlns="http://www.w3.org/2000/svg"
 width="450.000000pt" height="450.000000pt" viewBox="0 0 450.000000 450.000000"
 preserveAspectRatio="xMidYMid meet">
<metadata>
Created by potrace 1.10, written by Peter Selinger 2001-2011
</metadata>
<g transform="translate(0.000000,450.000000) scale(0.100000,-0.100000)"
fill="#000000" stroke="none">
<path d="M2100 4105 c-130 -29 -207 -69 -540 -276 -181 -114 -500 -306 -645
-389 -178 -102 -389 -245 -430 -292 -20 -24 -55 -78 -76 -122 -71 -146 -70
-131 -67 -966 l3 -745 33 -83 c46 -113 121 -222 193 -280 32 -27 107 -77 167
-112 114 -69 248 -150 415 -254 105 -65 442 -250 474 -260 17 -6 18 32 18 952
l1 957 29 54 c53 97 171 185 400 301 16 8 32 26 36 40 7 26 12 160 5 160 -10
0 -322 -154 -358 -177 -101 -64 -172 -129 -213 -193 -85 -133 -80 -63 -83
-972 -2 -600 -6 -808 -14 -808 -6 0 -34 15 -62 34 -28 18 -107 66 -175 107
-69 40 -134 83 -145 96 -20 23 -20 32 -18 816 3 773 3 794 24 857 28 87 80
163 144 212 30 22 156 102 281 177 126 76 299 181 385 233 165 101 238 128
341 128 87 0 226 -57 319 -131 27 -21 56 -39 63 -39 7 0 39 24 69 53 64 60 65
70 8 114 -166 127 -319 186 -487 187 -91 1 -106 -2 -175 -31 -41 -18 -106 -51
-145 -74 -38 -23 -83 -49 -100 -59 -16 -9 -118 -70 -225 -135 -107 -65 -233
-141 -280 -168 -193 -112 -281 -194 -336 -313 -59 -127 -57 -97 -61 -929 -2
-423 -8 -774 -13 -779 -11 -11 -149 75 -217 137 -30 28 -63 68 -75 90 -51 100
-49 75 -53 840 -4 636 -3 723 11 765 57 167 117 230 365 379 101 61 220 133
264 161 44 27 170 103 280 168 110 65 255 153 323 197 230 147 323 187 434
187 107 0 175 -32 513 -242 296 -183 463 -280 474 -274 12 8 25 147 17 179 -3
13 -18 29 -33 36 -14 7 -121 72 -237 145 -402 253 -489 301 -603 330 -93 23
-153 26 -223 11z"/>
<path d="M3392 3285 c-83 -18 -187 -69 -402 -198 -96 -57 -260 -153 -365 -213
-269 -154 -333 -204 -390 -301 -25 -43 -55 -109 -68 -148 l-22 -70 0 -995 0
-995 262 0 c144 0 264 2 267 5 3 3 6 285 6 625 1 341 5 726 9 855 8 231 9 237
37 294 45 92 90 134 235 221 74 44 190 115 259 159 192 121 234 140 305 141
86 0 147 -32 190 -99 44 -71 56 -111 56 -203 0 -176 -75 -254 -433 -447 -48
-26 -161 -90 -250 -143 -90 -53 -203 -119 -253 -148 l-90 -51 -6 -69 c-9 -92
-11 -569 -3 -589 9 -23 24 -20 80 15 27 18 135 81 239 141 105 61 253 147 330
193 153 90 414 242 485 282 110 62 239 164 302 239 92 109 140 204 178 354 31
119 32 132 27 265 -3 97 -11 166 -27 225 -63 245 -251 477 -475 585 -171 83
-323 104 -483 70z"/>
</g>
</svg>
